<?xml version="1.0" standalone="no"?>
<!DOCTYPE svg PUBLIC "-//W3C//DTD SVG 20010904//EN"
 "http://www.w3.org/TR/2001/REC-SVG-20010904/DTD/svg10.dtd">
<svg version="1.0" xmlns="http://www.w3.org/2000/svg"
 width="180.000000pt" height="180.000000pt" viewBox="0 0 180.000000 180.000000"
 preserveAspectRatio="xMidYMid meet">
<g transform="translate(0.000000,180.000000) scale(0.100000,-0.100000)"
 stroke="none">
<path d="M1 900 l0 -900 899 0 900 0 0 900 0 900 -900 0 -900 0 1 -900z m1053
644 c93 -24 195 -78 270 -144 50 -45 75 -60 96 -60 28 0 30 -2 30 -39 0 -24
14 -68 35 -112 50 -106 65 -177 65 -299 0 -126 -19 -211 -65 -303 l-35 -69 0
-149 0 -149 -552 2 -553 3 -5 155 c-4 133 -8 161 -26 195 -12 22 -34 74 -49
115 -25 66 -28 90 -29 195 -1 133 13 194 67 300 17 33 33 83 36 110 5 45 8 50
28 47 16 -2 45 16 95 58 79 66 181 121 268 144 75 20 247 20 324 0z"/>
<path d="M802 1539 c-78 -13 -170 -47 -227 -81 -59 -36 -135 -97 -135 -108 0
-4 205 -9 455 -9 283 -1 455 2 455 8 0 16 -112 99 -175 130 -111 55 -264 79
-373 60z"/>
<path d="M463 1323 c13 -12 412 -190 419 -186 4 2 6 45 4 96 l-2 92 -214 3
c-118 1 -211 -1 -207 -5z"/>
<path d="M907 1323 c-10 -9 -9 -181 1 -186 7 -4 406 173 419 186 3 4 -88 7
-204 7 -115 0 -213 -3 -216 -7z"/>
<path d="M382 1286 c-19 -28 -23 -44 -20 -97 l3 -64 240 -3 c132 -1 235 1 230
6 -6 5 -37 20 -70 35 -33 14 -125 56 -204 92 -80 36 -147 65 -150 65 -3 0 -16
-15 -29 -34z"/>
<path d="M1163 1227 c-111 -51 -205 -96 -209 -100 -4 -4 100 -6 232 -5 l239 3
3 63 c3 56 0 68 -23 98 -14 19 -29 34 -33 33 -4 0 -98 -42 -209 -92z"/>
<path d="M312 1163 c-44 -102 -55 -169 -49 -298 5 -117 15 -165 54 -251 l18
-39 3 163 c1 90 1 234 0 320 l-3 157 -23 -52z"/>
<path d="M1451 900 l1 -315 23 50 c74 156 72 397 -4 542 l-20 38 0 -315z"/>
<path d="M438 1102 l-76 -3 -1 -283 -2 -284 40 -49 c40 -51 121 -123 137 -123
10 1 152 176 217 268 23 31 44 59 47 62 3 3 22 25 42 50 l37 46 3 157 3 157
-110 0 c-60 1 -144 2 -185 3 -41 1 -109 1 -152 -1z"/>
<path d="M998 1102 l-88 -3 0 -157 0 -158 88 -110 c48 -60 93 -116 99 -124 7
-8 42 -53 78 -100 37 -47 71 -87 76 -88 15 -6 94 63 133 117 l36 48 6 287 7
286 -124 1 c-68 0 -146 2 -174 2 -27 1 -89 1 -137 -1z"/>
<path d="M840 695 c-19 -25 -91 -113 -158 -195 -97 -118 -121 -154 -113 -164
29 -34 187 -86 264 -86 l47 0 0 245 c0 135 -1 245 -3 245 -1 0 -18 -20 -37
-45z"/>
<path d="M910 490 l0 -251 48 6 c94 13 250 67 266 93 3 5 -18 38 -47 74 -29
35 -100 124 -159 197 l-108 133 0 -252z"/>
<path d="M362 368 l3 -123 174 -2 c95 -1 172 -1 170 1 -2 2 -29 14 -59 27 -85
35 -159 86 -228 156 l-63 64 3 -123z"/>
<path d="M1365 425 c-65 -66 -131 -111 -225 -152 l-75 -34 176 3 176 2 7 110
c4 60 3 112 -1 116 -4 3 -30 -17 -58 -45z"/>
</g>
</svg>
